# Blender v2.79 (sub 0) OBJ File: 'Chibi.blend'
# www.blender.org
mtllib Body.mtl
o Body_body
v -0.347925 1.721888 0.210287
v -0.168268 2.571897 0.199051
v -0.345570 1.698343 -0.093037
v -0.168268 2.617887 -0.202440
v 0.366349 1.727364 0.210287
v 0.215796 2.571897 0.199051
v 0.377576 1.698343 -0.093037
v 0.215796 2.617887 -0.202440
v -0.345570 2.378194 0.273206
v -0.227979 2.518853 -0.273461
v 0.265542 2.518853 -0.273461
v 0.377576 2.378194 0.273206
v -0.284906 2.081638 -0.110189
v 0.327752 2.081638 -0.110189
v 0.279490 2.081638 0.250505
v -0.235147 2.081638 0.250505
v 0.016452 2.378194 0.315791
v -0.362965 2.585923 -0.025909
v 0.401519 2.585923 -0.025909
v 0.021873 2.629729 -0.186221
v 0.021873 1.843538 0.324862
v 0.016452 1.624464 0.110594
v 0.021873 2.081638 -0.184967
v 0.016452 1.624464 -0.151758
v 0.024214 2.832718 -0.001694
v 0.454345 2.378194 -0.015385
v -0.411362 2.378194 -0.015385
v 0.016003 2.292434 -0.264209
v 0.120005 2.651294 -0.152696
v 0.195973 2.669575 -0.013802
v -0.072027 2.651294 -0.152696
v 0.023043 2.657215 -0.093957
v 0.154446 2.648322 0.131904
v -0.111317 2.648322 0.131904
v -0.141239 2.669575 -0.013802
v 0.023989 2.648322 0.135837
v 0.072109 2.796209 -0.051881
v 0.072109 2.794723 0.048492
v -0.023907 2.796209 -0.051881
v -0.023907 2.794723 0.048492
v 0.023628 2.799169 -0.047826
v 0.110093 2.805349 -0.007748
v 0.024101 2.794723 0.067071
v -0.058513 2.805349 -0.007748
v 0.264386 1.731303 0.263764
v -0.231105 1.731303 0.263764
v 0.019163 1.632949 0.220235
vn -0.5327 0.6803 0.5034
vn 0.2355 0.2150 -0.9478
vn 0.8387 0.1874 -0.5114
vn 0.1057 0.4313 0.8960
vn -0.2000 -0.9798 0.0000
vn 0.0049 0.8345 -0.5510
vn 0.4489 -0.2149 0.8673
vn 0.8986 -0.4220 0.1202
vn -0.2248 -0.3151 -0.9221
vn -0.9114 -0.3553 0.2078
vn -0.9501 0.2832 0.1311
vn -0.1637 -0.0182 -0.9863
vn 0.9912 0.1299 0.0243
vn 0.1615 -0.9128 0.3752
vn -0.1050 0.4379 0.8928
vn 0.0000 0.5162 0.8565
vn -0.5509 0.6796 -0.4845
vn -0.8448 0.1711 -0.5070
vn 0.5591 0.6594 0.5027
vn 0.5811 0.6464 -0.4944
vn -0.0337 0.5712 -0.8201
vn 0.0347 0.5685 -0.8219
vn -0.4678 -0.2393 0.8508
vn -0.3523 -0.9324 0.0809
vn 0.1171 0.0180 0.9930
vn 0.2553 0.0256 0.9665
vn -0.1168 0.0157 0.9930
vn -0.4180 0.0295 0.9080
vn 0.2256 -0.3125 -0.9227
vn 0.2681 -0.3324 -0.9042
vn 0.2368 -0.0732 -0.9688
vn 0.0224 0.6699 0.7421
vn 0.3056 0.8765 0.3720
vn -0.4731 0.7536 0.4564
vn -0.0002 0.8087 -0.5882
vn 0.2735 0.9550 -0.1148
vn -0.3253 0.9029 -0.2809
vn 0.9356 0.2505 0.2489
vn 0.9151 -0.3213 0.2434
vn 0.7667 -0.1260 -0.6296
vn -0.7730 -0.1312 -0.6207
vn -0.9484 0.2319 0.2162
vn -0.8979 -0.4225 0.1239
vn -0.9876 0.1554 -0.0197
vn 0.9664 0.2223 0.1293
vn 0.2540 -0.9619 0.1014
vn -0.2388 -0.9683 0.0733
vn 0.2004 -0.9797 0.0000
vn -0.2855 -0.3442 -0.8944
vn -0.2372 0.2228 -0.9456
vn -0.7576 0.4813 -0.4409
vn -0.8330 0.4967 0.2435
vn 0.1168 0.9514 -0.2849
vn -0.0263 0.4250 0.9048
vn 0.7375 0.4873 -0.4675
vn 0.3781 0.8946 0.2383
vn -0.4864 0.2719 -0.8304
vn -0.2682 0.9555 -0.1228
vn -0.3552 0.9118 0.2060
vn 0.4729 0.7645 0.4381
vn 0.3436 0.8883 -0.3048
vn -0.0216 0.6689 0.7430
vn 0.0000 0.6374 0.7706
vn 0.1841 0.8602 0.4756
vn -0.0050 0.8346 -0.5508
vn -0.1129 0.9526 -0.2824
vn 0.1650 -0.0227 -0.9860
vn -0.2363 -0.0676 -0.9693
vn 0.2909 0.5919 0.7517
vn 0.2526 0.8811 -0.3999
vn 0.0354 0.5628 -0.8258
vn -0.3166 0.8773 0.3606
vn 0.8112 0.4995 0.3041
vn 0.0002 0.8087 -0.5882
vn -0.1839 0.8605 0.4751
vn -0.2635 0.8826 -0.3894
vn -0.5983 0.6354 0.4882
vn -0.2892 0.5984 0.7472
vn 0.0273 0.4250 0.9048
vn 0.5878 0.6240 0.5149
vn 0.5458 0.5926 -0.5925
vn 0.4945 0.2668 -0.8272
vn -0.0347 0.5630 -0.8257
vn -0.5731 0.5876 -0.5711
vn 0.4648 0.0135 0.8853
vn -0.1230 -0.8962 0.4264
vn 0.3619 -0.9301 0.0630
vn -0.2488 0.0338 0.9680
vn 0.0196 -0.4451 0.8953
vn -0.0190 -0.4447 0.8955
usemtl None
s off
f 9//1 2//1 18//1
f 10//2 20//2 28//2
f 11//3 19//3 26//3
f 12//4 6//4 17//4
f 3//5 24//5 22//5
f 8//6 20//6 29//6
f 15//7 12//7 21//7
f 14//8 26//8 15//8
f 13//9 10//9 23//9
f 16//10 9//10 27//10
f 1//11 16//11 13//11
f 3//12 13//12 24//12
f 7//13 14//13 5//13
f 5//14 45//14 22//14
f 17//15 2//15 9//15
f 2//16 17//16 6//16
f 18//17 4//17 10//17
f 10//18 27//18 18//18
f 12//19 19//19 6//19
f 19//20 11//20 8//20
f 11//21 20//21 8//21
f 20//22 10//22 4//22
f 21//23 9//23 16//23
f 22//24 47//24 46//24
f 21//25 12//25 17//25
f 21//26 45//26 15//26
f 9//27 21//27 17//27
f 1//28 46//28 16//28
f 23//29 11//29 14//29
f 11//30 23//30 28//30
f 24//31 23//31 14//31
f 6//32 33//32 36//32
f 25//33 38//33 42//33
f 2//34 34//34 18//34
f 25//35 41//35 39//35
f 19//36 8//36 29//36
f 18//37 35//37 31//37
f 26//38 19//38 12//38
f 15//39 26//39 12//39
f 26//40 14//40 11//40
f 27//41 10//41 13//41
f 18//42 27//42 9//42
f 13//43 16//43 27//43
f 13//44 3//44 1//44
f 5//45 14//45 15//45
f 22//46 7//46 5//46
f 22//47 1//47 3//47
f 22//48 24//48 7//48
f 28//49 23//49 10//49
f 28//50 20//50 11//50
f 31//51 35//51 44//51
f 35//52 34//52 44//52
f 31//53 32//53 20//53
f 34//54 36//54 43//54
f 30//55 29//55 42//55
f 30//56 33//56 19//56
f 29//57 32//57 41//57
f 31//58 4//58 18//58
f 18//59 34//59 35//59
f 19//60 33//60 6//60
f 29//61 30//61 19//61
f 36//62 34//62 2//62
f 2//63 6//63 36//63
f 25//64 43//64 38//64
f 20//65 4//65 31//65
f 29//66 20//66 32//66
f 14//67 7//67 24//67
f 24//68 13//68 23//68
f 38//69 43//69 33//69
f 42//70 37//70 25//70
f 39//71 41//71 31//71
f 44//72 40//72 25//72
f 42//73 33//73 30//73
f 37//74 41//74 25//74
f 40//75 43//75 25//75
f 39//76 44//76 25//76
f 44//77 34//77 40//77
f 43//78 40//78 34//78
f 33//79 43//79 36//79
f 33//80 42//80 38//80
f 42//81 29//81 37//81
f 31//82 41//82 32//82
f 41//83 37//83 29//83
f 44//84 39//84 31//84
f 15//85 45//85 5//85
f 46//86 1//86 22//86
f 22//87 45//87 47//87
f 16//88 46//88 21//88
f 47//89 45//89 21//89
f 46//90 47//90 21//90
