# Blender v2.79 (sub 0) OBJ File: 'untitled.blend'
# www.blender.org
mtllib Coin.mtl
o Cilindro
v 1.014154 1.112824 -0.105444
v 1.013711 1.112703 0.092265
v 0.994940 0.917733 -0.105606
v 0.994496 0.917613 0.092103
v 0.938035 0.730140 -0.105848
v 0.937591 0.730020 0.091861
v 0.845625 0.557253 -0.106161
v 0.845181 0.557133 0.091548
v 0.721263 0.405717 -0.106532
v 0.720819 0.405596 0.091176
v 0.569727 0.281354 -0.106948
v 0.569283 0.281233 0.090761
v 0.396841 0.188944 -0.107392
v 0.396397 0.188824 0.090316
v 0.209248 0.132038 -0.107848
v 0.208804 0.131918 0.089861
v 0.014158 0.112824 -0.108297
v 0.013715 0.112703 0.089411
v -0.180932 0.132038 -0.108723
v -0.181375 0.131918 0.088985
v -0.368524 0.188944 -0.109110
v -0.368968 0.188824 0.088599
v -0.541411 0.281354 -0.109441
v -0.541854 0.281234 0.088267
v -0.692947 0.405717 -0.109706
v -0.693391 0.405596 0.088003
v -0.817310 0.557254 -0.109892
v -0.817754 0.557133 0.087816
v -0.909720 0.730140 -0.109994
v -0.910164 0.730020 0.087714
v -0.966626 0.917734 -0.110008
v -0.967069 0.917613 0.087701
v -0.985841 1.112824 -0.109932
v -0.986284 1.112703 0.087777
v -0.966626 1.307914 -0.109770
v -0.967070 1.307794 0.087939
v -0.909721 1.495507 -0.109528
v -0.910164 1.495387 0.088181
v -0.817311 1.668394 -0.109215
v -0.817755 1.668274 0.088493
v -0.692949 1.819931 -0.108843
v -0.693392 1.819810 0.088865
v -0.541412 1.944293 -0.108428
v -0.541856 1.944173 0.089281
v -0.368526 2.036703 -0.107983
v -0.368970 2.036583 0.089725
v -0.180933 2.093609 -0.107528
v -0.181377 2.093488 0.090181
v 0.014157 2.112823 -0.107078
v 0.013713 2.112703 0.090630
v 0.209247 2.093608 -0.106652
v 0.208803 2.093488 0.091056
v 0.396839 2.036702 -0.106266
v 0.396396 2.036582 0.091442
v 0.569726 1.944292 -0.105934
v 0.569282 1.944172 0.091774
v 0.721262 1.819929 -0.105670
v 0.720818 1.819809 0.092038
v 0.845625 1.668392 -0.105483
v 0.845181 1.668272 0.092225
v 0.938034 1.495506 -0.105381
v 0.937591 1.495385 0.092327
v 0.994940 1.307912 -0.105368
v 0.994496 1.307792 0.092340
vt 0.500164 0.404499
vt 0.549798 0.404499
vt 0.549798 0.355523
vt 0.500164 0.355523
vt 0.628703 0.681938
vt 0.628703 0.632304
vt 0.581609 0.632304
vt 0.581609 0.681938
vt 0.538206 0.632304
vt 0.538206 0.681938
vt 0.500164 0.632304
vt 0.500164 0.681938
vt 0.550215 0.355195
vt 0.599849 0.355195
vt 0.599830 0.317153
vt 0.550196 0.317153
vt 0.599816 0.273750
vt 0.550182 0.273750
vt 0.599807 0.226656
vt 0.550173 0.226656
vt 0.599804 0.177680
vt 0.550170 0.177680
vt 0.599807 0.128703
vt 0.550173 0.128703
vt 0.599816 0.081609
vt 0.550182 0.081609
vt 0.599830 0.038206
vt 0.550196 0.038206
vt 0.599849 0.000164
vt 0.550215 0.000164
vt 0.677680 0.582343
vt 0.677680 0.631976
vt 0.639637 0.631976
vt 0.639637 0.582343
vt 0.596235 0.631976
vt 0.596235 0.582343
vt 0.549140 0.631976
vt 0.549140 0.582343
vt 0.500164 0.631976
vt 0.500164 0.582343
vt 0.550125 0.355523
vt 0.599759 0.355523
vt 0.599759 0.404499
vt 0.550125 0.404499
vt 0.599759 0.451594
vt 0.550125 0.451594
vt 0.599759 0.494996
vt 0.550125 0.494996
vt 0.599759 0.533039
vt 0.550125 0.533039
vt 0.549842 0.355195
vt 0.500209 0.355195
vt 0.500190 0.317153
vt 0.549824 0.317153
vt 0.500175 0.273750
vt 0.549809 0.273750
vt 0.500167 0.226656
vt 0.549801 0.226656
vt 0.500164 0.177679
vt 0.549798 0.177679
vt 0.500167 0.128703
vt 0.549801 0.128703
vt 0.500176 0.081609
vt 0.549809 0.081609
vt 0.500190 0.038206
vt 0.549824 0.038206
vt 0.500209 0.000164
vt 0.549843 0.000164
vt 0.500164 0.582015
vt 0.549798 0.582015
vt 0.549798 0.543972
vt 0.500164 0.543972
vt 0.549798 0.500570
vt 0.500164 0.500570
vt 0.322875 0.009765
vt 0.368342 0.028598
vt 0.409261 0.055939
vt 0.444060 0.090739
vt 0.471402 0.131658
vt 0.490235 0.177125
vt 0.499836 0.225393
vt 0.499836 0.274607
vt 0.490235 0.322874
vt 0.471402 0.368342
vt 0.444060 0.409261
vt 0.409261 0.444060
vt 0.368342 0.471402
vt 0.322875 0.490235
vt 0.274607 0.499836
vt 0.225393 0.499836
vt 0.177125 0.490235
vt 0.131658 0.471402
vt 0.090739 0.444060
vt 0.055940 0.409261
vt 0.028598 0.368342
vt 0.009765 0.322874
vt 0.000164 0.274607
vt 0.000164 0.225393
vt 0.009765 0.177125
vt 0.028598 0.131658
vt 0.055940 0.090739
vt 0.090739 0.055940
vt 0.131658 0.028598
vt 0.177126 0.009765
vt 0.225393 0.000164
vt 0.274607 0.000164
vt 0.549798 0.453475
vt 0.500164 0.453475
vt 0.009765 0.677125
vt 0.000164 0.725393
vt 0.000164 0.774607
vt 0.009765 0.822874
vt 0.028598 0.868342
vt 0.055940 0.909261
vt 0.090739 0.944060
vt 0.131658 0.971402
vt 0.177125 0.990235
vt 0.225393 0.999836
vt 0.274607 0.999836
vt 0.322874 0.990235
vt 0.368342 0.971402
vt 0.409261 0.944060
vt 0.444060 0.909261
vt 0.471402 0.868342
vt 0.490235 0.822874
vt 0.499836 0.774607
vt 0.499836 0.725393
vt 0.490235 0.677125
vt 0.471402 0.631658
vt 0.444060 0.590739
vt 0.409261 0.555939
vt 0.368342 0.528598
vt 0.322874 0.509765
vt 0.274606 0.500164
vt 0.225393 0.500164
vt 0.177125 0.509765
vt 0.131658 0.528598
vt 0.090739 0.555940
vt 0.055939 0.590739
vt 0.028598 0.631658
vn 0.9952 -0.0980 0.0022
vn 0.9569 -0.2903 0.0020
vn 0.8819 -0.4714 0.0017
vn 0.7730 -0.6344 0.0013
vn 0.6344 -0.7730 0.0010
vn 0.4714 -0.8819 0.0005
vn 0.2903 -0.9569 0.0001
vn 0.0980 -0.9952 -0.0004
vn -0.0980 -0.9952 -0.0008
vn -0.2903 -0.9569 -0.0012
vn -0.4714 -0.8819 -0.0016
vn -0.6344 -0.7730 -0.0019
vn -0.7730 -0.6344 -0.0021
vn -0.8819 -0.4714 -0.0023
vn -0.9569 -0.2903 -0.0023
vn -0.9952 -0.0980 -0.0023
vn -0.9952 0.0980 -0.0022
vn -0.9569 0.2903 -0.0020
vn -0.8819 0.4714 -0.0017
vn -0.7730 0.6344 -0.0013
vn -0.6344 0.7730 -0.0010
vn -0.4714 0.8819 -0.0005
vn -0.2903 0.9569 -0.0001
vn -0.0980 0.9952 0.0004
vn 0.0980 0.9952 0.0008
vn 0.2903 0.9569 0.0012
vn 0.4714 0.8819 0.0016
vn 0.6344 0.7730 0.0019
vn 0.7730 0.6344 0.0021
vn 0.8819 0.4714 0.0023
vn -0.0022 -0.0006 1.0000
vn 0.9569 0.2903 0.0023
vn 0.9952 0.0980 0.0023
vn 0.0022 0.0006 -1.0000
usemtl Material.002
s off
f 1/1/1 2/2/1 4/3/1 3/4/1
f 3/5/2 4/6/2 6/7/2 5/8/2
f 5/8/3 6/7/3 8/9/3 7/10/3
f 7/10/4 8/9/4 10/11/4 9/12/4
f 9/13/5 10/14/5 12/15/5 11/16/5
f 11/16/6 12/15/6 14/17/6 13/18/6
f 13/18/7 14/17/7 16/19/7 15/20/7
f 15/20/8 16/19/8 18/21/8 17/22/8
f 17/22/9 18/21/9 20/23/9 19/24/9
f 19/24/10 20/23/10 22/25/10 21/26/10
f 21/26/11 22/25/11 24/27/11 23/28/11
f 23/28/12 24/27/12 26/29/12 25/30/12
f 25/31/13 26/32/13 28/33/13 27/34/13
f 27/34/14 28/33/14 30/35/14 29/36/14
f 29/36/15 30/35/15 32/37/15 31/38/15
f 31/38/16 32/37/16 34/39/16 33/40/16
f 33/41/17 34/42/17 36/43/17 35/44/17
f 35/44/18 36/43/18 38/45/18 37/46/18
f 37/46/19 38/45/19 40/47/19 39/48/19
f 39/48/20 40/47/20 42/49/20 41/50/20
f 41/51/21 42/52/21 44/53/21 43/54/21
f 43/54/22 44/53/22 46/55/22 45/56/22
f 45/56/23 46/55/23 48/57/23 47/58/23
f 47/58/24 48/57/24 50/59/24 49/60/24
f 49/60/25 50/59/25 52/61/25 51/62/25
f 51/62/26 52/61/26 54/63/26 53/64/26
f 53/64/27 54/63/27 56/65/27 55/66/27
f 55/66/28 56/65/28 58/67/28 57/68/28
f 57/69/29 58/70/29 60/71/29 59/72/29
f 59/72/30 60/71/30 62/73/30 61/74/30
f 4/75/31 2/76/31 64/77/31 62/78/31 60/79/31 58/80/31 56/81/31 54/82/31 52/83/31 50/84/31 48/85/31 46/86/31 44/87/31 42/88/31 40/89/31 38/90/31 36/91/31 34/92/31 32/93/31 30/94/31 28/95/31 26/96/31 24/97/31 22/98/31 20/99/31 18/100/31 16/101/31 14/102/31 12/103/31 10/104/31 8/105/31 6/106/31
f 61/74/32 62/73/32 64/107/32 63/108/32
f 63/108/33 64/107/33 2/2/33 1/1/33
f 1/109/34 3/110/34 5/111/34 7/112/34 9/113/34 11/114/34 13/115/34 15/116/34 17/117/34 19/118/34 21/119/34 23/120/34 25/121/34 27/122/34 29/123/34 31/124/34 33/125/34 35/126/34 37/127/34 39/128/34 41/129/34 43/130/34 45/131/34 47/132/34 49/133/34 51/134/34 53/135/34 55/136/34 57/137/34 59/138/34 61/139/34 63/140/34
