# Blender v2.79 (sub 0) OBJ File: 'Chibi.blend'
# www.blender.org
mtllib DownArm_D.mtl
o DownArm_D
v -1.458193 2.292939 0.080546
v -1.569474 2.401245 0.089875
v -1.459210 2.293656 -0.113804
v -1.570407 2.402135 -0.121197
v -1.013650 2.294075 0.104441
v -0.934507 2.428900 0.105742
v -1.014796 2.295271 -0.140133
v -0.935653 2.430096 -0.138833
v -1.475254 2.459233 -0.016184
v -1.034345 2.527060 -0.016558
v -0.944856 2.262300 -0.017843
v -1.534305 2.261253 -0.016735
v -1.252946 2.447884 -0.160211
v -1.251776 2.433462 0.130564
v -1.247155 2.220864 -0.017311
vn -0.5278 -0.5945 0.6066
vn -0.0569 -0.2171 -0.9745
vn 0.7319 -0.4245 -0.5330
vn -0.0510 -0.2675 0.9622
vn -0.0301 -0.8287 -0.5590
vn 0.0844 0.8128 -0.5764
vn 0.0581 0.8012 0.5956
vn -0.1271 -0.9095 0.3957
vn 0.9983 -0.0583 -0.0050
vn 0.7319 -0.4347 0.5247
vn 0.7010 0.7132 0.0002
vn 0.0771 -0.0549 0.9955
vn 0.1293 -0.9396 0.3169
vn 0.1278 -0.9368 -0.3257
vn 0.0656 -0.0289 -0.9974
vn -0.1454 0.9432 -0.2987
vn -0.1406 0.9163 0.3751
vn -0.9693 -0.2460 0.0032
vn -0.5330 -0.5878 -0.6086
vn -0.5193 0.8546 0.0059
vn -0.1054 -0.1924 0.9756
vn -0.0276 -0.8324 0.5535
vn -0.1283 -0.9066 -0.4019
vn -0.0967 -0.1660 -0.9814
vn -0.1751 0.9228 -0.3431
vn -0.1410 0.9160 0.3756
usemtl None
s off
f 1//1 2//1 12//1
f 3//2 13//2 7//2
f 7//3 8//3 11//3
f 5//4 14//4 1//4
f 3//5 7//5 15//5
f 8//6 13//6 10//6
f 10//7 14//7 6//7
f 12//8 15//8 1//8
f 11//9 8//9 6//9
f 6//10 5//10 11//10
f 6//11 8//11 10//11
f 14//12 5//12 6//12
f 5//13 15//13 11//13
f 15//14 7//14 11//14
f 7//15 13//15 8//15
f 10//16 13//16 9//16
f 14//17 10//17 9//17
f 12//18 2//18 4//18
f 4//19 3//19 12//19
f 4//20 2//20 9//20
f 1//21 14//21 2//21
f 1//22 15//22 5//22
f 15//23 12//23 3//23
f 13//24 3//24 4//24
f 9//25 13//25 4//25
f 9//26 2//26 14//26
