# Blender v2.79 (sub 0) OBJ File: 'Chibi.blend'
# www.blender.org
mtllib DownArm_E.mtl
o DownArm_E
v 1.510410 2.332365 -0.118256
v 1.621254 2.440458 -0.133434
v 1.515199 2.339708 0.075900
v 1.626282 2.448544 0.077427
v 1.065486 2.332016 -0.133512
v 0.986039 2.466598 -0.137861
v 1.071378 2.341550 0.110811
v 0.991931 2.476133 0.106462
v 1.528985 2.501886 -0.027596
v 1.088020 2.569021 -0.020943
v 0.999148 2.304324 -0.008899
v 1.588465 2.304129 -0.021453
v 1.309541 2.495117 0.121038
v 1.302757 2.470790 -0.169000
v 1.301469 2.263350 -0.013909
vn 0.5172 -0.6141 -0.5962
vn 0.0763 -0.1836 0.9800
vn -0.7205 -0.4072 0.5613
vn 0.0329 -0.3001 -0.9533
vn 0.0427 -0.8091 0.5862
vn -0.0750 0.8318 0.5499
vn -0.0714 0.7803 -0.6213
vn 0.1214 -0.9223 -0.3669
vn -0.9979 -0.0596 0.0264
vn -0.7410 -0.4534 -0.4953
vn -0.7024 0.7117 -0.0108
vn -0.0963 -0.0889 -0.9914
vn -0.1334 -0.9500 -0.2822
vn -0.1195 -0.9253 0.3598
vn -0.0461 0.0050 0.9989
vn 0.1491 0.9531 0.2635
vn 0.1313 0.9032 -0.4087
vn 0.9696 -0.2445 -0.0137
vn 0.5460 -0.5659 0.6177
vn 0.5172 0.8547 -0.0451
vn 0.0869 -0.2254 -0.9704
vn 0.0187 -0.8507 -0.5253
vn 0.1381 -0.8922 0.4300
vn 0.1161 -0.1323 0.9844
vn 0.1798 0.9343 0.3080
vn 0.1317 0.9029 -0.4092
usemtl None
s off
f 1//1 2//1 12//1
f 3//2 13//2 7//2
f 7//3 8//3 11//3
f 5//4 14//4 1//4
f 3//5 7//5 15//5
f 8//6 13//6 10//6
f 10//7 14//7 6//7
f 12//8 15//8 1//8
f 11//9 8//9 6//9
f 6//10 5//10 11//10
f 6//11 8//11 10//11
f 14//12 5//12 6//12
f 5//13 15//13 11//13
f 15//14 7//14 11//14
f 7//15 13//15 8//15
f 10//16 13//16 9//16
f 14//17 10//17 9//17
f 12//18 2//18 4//18
f 4//19 3//19 12//19
f 4//20 2//20 9//20
f 1//21 14//21 2//21
f 1//22 15//22 5//22
f 15//23 12//23 3//23
f 13//24 3//24 4//24
f 9//25 13//25 4//25
f 9//26 2//26 14//26
