# Blender v2.79 (sub 0) OBJ File: 'Chibi.blend'
# www.blender.org
mtllib Foot_D.mtl
o foot_D_foot_E.002
v -0.448285 0.039734 0.614320
v -0.474566 0.320300 0.241166
v -0.448285 0.039734 -0.071560
v -0.431375 0.628934 -0.096854
v -0.021222 0.039734 0.614320
v -0.002554 0.320300 0.241166
v -0.021222 0.039734 -0.071560
v -0.061743 0.628934 -0.096854
v -0.431375 0.628934 0.230411
v -0.061743 0.628934 0.230411
v -0.062442 0.301804 0.540782
v -0.418389 0.301804 0.540782
v -0.234754 0.409011 0.326585
v -0.234754 0.628934 0.296315
v -0.234754 0.280597 0.678583
v -0.234754 0.628934 -0.153498
v -0.234754 0.061384 -0.128204
v -0.234754 0.227014 -0.161398
vn -0.9956 -0.0933 0.0000
vn -0.2335 -0.1911 -0.9534
vn 0.9978 -0.0664 0.0000
vn 0.0000 -0.2578 0.9662
vn 0.1009 -0.9949 0.0000
vn 0.0000 1.0000 0.0000
vn 0.3542 0.1003 0.9298
vn -0.1471 0.9292 0.3390
vn -0.5546 0.2829 0.7826
vn 0.1565 0.9279 0.3385
vn -0.3740 0.1265 0.9188
vn 0.5720 0.3038 0.7620
vn -0.9677 0.1641 0.1916
vn -0.9942 0.0240 -0.1051
vn 0.9567 0.2077 0.2040
vn 0.2335 -0.1911 -0.9534
vn -0.9903 0.1386 0.0000
vn -0.3656 -0.0294 -0.9303
vn 0.3111 0.0187 -0.9502
vn -0.2768 0.0189 -0.9607
vn 0.3775 -0.0138 -0.9259
vn 0.9913 0.0632 -0.1159
vn 0.9821 0.1883 0.0000
vn 0.3845 0.1259 0.9145
vn -0.3169 0.0773 0.9453
vn 0.3967 0.9079 0.1353
vn -0.3840 0.9144 0.1284
vn 0.0000 -0.9996 -0.0291
vn -0.1009 -0.9949 0.0000
usemtl None
s off
f 1//1 2//1 3//1
f 3//2 18//2 17//2
f 7//3 6//3 5//3
f 5//4 15//4 1//4
f 3//5 17//5 1//5
f 8//6 16//6 4//6 9//6 14//6 10//6
f 10//7 14//7 6//7
f 12//8 15//8 13//8
f 1//9 15//9 12//9
f 13//10 15//10 11//10
f 13//11 14//11 2//11
f 15//12 5//12 11//12
f 2//13 1//13 12//13
f 3//14 2//14 4//14
f 5//15 6//15 11//15
f 17//16 18//16 7//16
f 4//17 2//17 9//17
f 18//18 3//18 4//18
f 8//19 18//19 16//19
f 4//20 16//20 18//20
f 7//21 18//21 8//21
f 6//22 7//22 8//22
f 8//23 10//23 6//23
f 6//24 14//24 13//24
f 2//25 14//25 9//25
f 11//26 6//26 13//26
f 13//27 2//27 12//27
f 1//28 17//28 5//28
f 5//29 17//29 7//29
