# Blender v2.79 (sub 0) OBJ File: 'Chibi.blend'
# www.blender.org
mtllib Head.mtl
o Head_head
v 0.025377 2.823921 -0.160849
v 0.112942 2.817589 -0.090300
v 0.026675 2.474181 0.140863
v -0.065152 2.819552 -0.069731
v 0.024480 3.498806 -0.464656
v 0.322558 3.557661 0.193202
v 0.017244 3.012292 0.556307
v -0.259631 3.545589 0.196094
v 0.324806 2.914004 0.096164
v -0.282204 2.912368 0.099028
v 0.022098 2.781687 0.403857
v 0.027481 3.578246 0.357662
v 0.352441 3.334471 -0.359646
v -0.301713 3.328670 -0.377139
v -0.254377 3.591428 -0.184033
v 0.022629 3.708297 0.023732
v 0.291554 3.608885 -0.176810
v 0.356138 2.996260 -0.062309
v -0.327782 3.006394 -0.042559
v 0.021849 2.512868 -0.105868
v 0.119482 2.509525 0.102506
v -0.063293 2.507216 0.103044
v 0.089326 2.807128 0.090182
v -0.050971 2.815033 0.093938
v 0.018845 2.768282 0.166739
v -0.122052 2.805732 0.005129
v 0.162117 2.802720 0.003337
v 0.178477 3.020904 -0.385316
v 0.025182 3.216464 -0.517614
v -0.122949 3.018003 -0.394062
v -0.221466 3.384890 0.368816
v 0.275898 3.390926 0.367370
v 0.025279 2.967344 -0.393701
v 0.315410 3.038833 -0.259082
v -0.265554 3.026588 -0.244722
v 0.400722 3.490665 -0.091761
v 0.023555 3.632635 -0.320053
v -0.339421 3.487357 -0.090522
v -0.146030 2.937600 0.388300
v 0.201146 2.938418 0.386868
v -0.369699 3.217903 0.147561
v -0.380885 3.352847 0.025292
v 0.407322 3.224756 0.144683
v 0.427714 3.368445 0.013971
v -0.302981 3.096330 0.257345
v 0.338495 3.094537 0.270534
v 0.024262 2.403168 -0.012212
v 0.022363 3.387967 0.475228
v 0.061374 3.103274 0.440768
v 0.019671 2.938565 0.482931
v -0.024852 3.100255 0.441491
v 0.090684 3.011704 0.468296
v -0.044281 3.011296 0.469012
v 0.019804 3.125881 0.467206
v 0.406165 3.260906 -0.145015
v -0.374125 3.246876 -0.138790
v -0.238741 2.913908 0.256152
v -0.154677 2.825814 0.282962
v 0.294135 2.915135 0.254003
v 0.204611 2.826632 0.281530
vn -0.7018 -0.1163 -0.7028
vn -0.4041 0.6700 -0.6227
vn 0.3316 -0.8096 -0.4843
vn 0.5698 -0.7110 -0.4121
vn -0.7441 -0.0782 0.6634
vn -0.3383 0.1727 -0.9251
vn 0.7449 -0.0388 0.6661
vn 0.4224 0.5956 0.6833
vn -0.9000 0.2493 0.3575
vn -0.8940 0.4169 0.1642
vn 0.7214 0.6916 0.0353
vn 0.4598 -0.8083 0.3677
vn 0.7045 0.4014 0.5852
vn 0.3780 -0.8529 0.3601
vn -0.9114 -0.3226 0.2553
vn -0.3531 -0.8583 0.3725
vn 0.5513 -0.5631 0.6157
vn -0.7385 -0.6406 0.2105
vn -0.6287 0.4887 0.6049
vn 0.2566 0.9019 0.3475
vn 0.5886 -0.7564 -0.2855
vn 0.3774 0.1716 -0.9100
vn -0.4662 -0.7892 -0.3998
vn -0.8544 0.3988 -0.3332
vn 0.1972 0.9576 -0.2102
vn 0.4928 0.5556 -0.6697
vn -0.4779 0.5745 -0.6645
vn -0.4500 0.8873 0.1008
vn 0.9075 -0.2716 -0.3203
vn 0.9630 -0.2640 0.0533
vn 0.4049 0.9097 0.0920
vn -0.2981 0.8880 0.3502
vn -0.9195 -0.2449 -0.3075
vn -0.6388 -0.7196 -0.2723
vn -0.8711 -0.3299 -0.3639
vn 0.8773 -0.2411 -0.4149
vn -0.3739 0.0424 0.9265
vn 0.5163 -0.8554 0.0413
vn 0.3565 0.0747 0.9313
vn -0.2051 -0.9771 -0.0568
vn 0.2186 -0.9753 -0.0323
vn -0.5936 -0.8030 0.0535
vn -0.7823 0.0497 0.6209
vn -0.7172 -0.3406 -0.6080
vn 0.8298 -0.2833 -0.4808
vn 0.7648 0.1038 0.6358
vn 0.6399 -0.7265 -0.2506
vn -0.5288 -0.6669 -0.5250
vn -0.9030 -0.2121 -0.3737
vn 0.6145 -0.1441 -0.7756
vn -0.1484 -0.4405 -0.8854
vn 0.4871 -0.7659 -0.4196
vn -0.3919 -0.8142 -0.4284
vn 0.2005 -0.4362 -0.8772
vn 0.4831 -0.1982 -0.8528
vn -0.4458 -0.2091 -0.8704
vn -0.8802 0.2345 0.4127
vn -0.4413 0.6063 0.6616
vn 0.8678 0.0211 0.4964
vn 0.3368 0.4883 0.8050
vn 0.3103 -0.8094 -0.4987
vn -0.2783 -0.8179 -0.5036
vn 0.9498 -0.2006 -0.2400
vn 0.6655 -0.3137 -0.6773
vn -0.5779 -0.7752 -0.2553
vn -0.6851 -0.3597 -0.6335
vn -0.8715 -0.3175 -0.3737
vn -0.7405 0.6683 0.0704
vn 0.7983 0.4464 -0.4042
vn 0.3930 0.6761 -0.6232
vn 0.9822 0.0642 -0.1765
vn -0.2428 0.9473 -0.2091
vn -0.4511 -0.4073 0.7941
vn -0.3758 -0.0230 0.9264
vn 0.6983 -0.0847 0.7108
vn 0.4507 -0.2671 0.8518
vn -0.9256 -0.3014 0.2288
vn -0.9738 0.1707 -0.1504
vn -0.9883 -0.1391 -0.0631
vn 0.9201 0.1839 0.3457
vn 0.9209 0.3506 0.1702
vn 0.8990 0.1701 0.4036
vn -0.8401 0.0281 0.5417
vn -0.6874 -0.0845 0.7214
vn 0.9341 -0.2822 0.2188
vn 0.7736 -0.2451 0.5844
vn -0.4555 -0.8048 0.3805
vn 0.8537 -0.3272 -0.4052
vn -0.3519 0.4988 0.7920
vn 0.3914 -0.0575 0.9184
vn 0.6524 -0.5238 0.5478
vn 0.6411 0.4647 0.6108
vn -0.4894 -0.0219 0.8718
vn -0.6967 -0.5175 0.4969
vn -0.7718 0.3356 0.5401
vn 0.7009 0.4016 0.5895
vn 0.4282 -0.4015 0.8096
vn -0.4778 -0.2595 0.8393
vn -0.7236 0.3433 0.5988
vn 0.3431 -0.0162 0.9392
vn -0.3992 -0.0419 0.9159
vn 0.5243 -0.0312 0.8510
vn 0.9827 -0.1799 -0.0444
vn -0.9503 -0.2901 0.1132
vn 0.9822 -0.1876 -0.0062
vn 0.9731 0.0737 -0.2183
vn -0.9844 -0.1636 0.0651
vn -0.9563 0.1837 -0.2275
vn -0.6776 -0.4759 0.5607
vn -0.7639 -0.2728 0.5848
vn -0.3860 -0.9085 -0.1599
vn 0.9496 -0.2520 0.1863
vn 0.7178 -0.6812 0.1444
vn 0.4115 -0.8979 -0.1564
vn -0.5620 -0.5438 0.6232
vn 0.6654 -0.5009 0.5535
usemtl Material
s off
f 1//1 20//1 4//1
f 5//2 15//2 37//2
f 1//3 28//3 2//3
f 2//4 18//4 27//4
f 3//5 25//5 24//5
f 5//6 29//6 14//6
f 3//7 23//7 25//7
f 6//8 12//8 32//8
f 8//9 42//9 41//9
f 8//10 38//10 42//10
f 6//11 36//11 17//11
f 3//12 47//12 21//12
f 7//13 52//13 49//13
f 9//14 23//14 27//14
f 10//15 57//15 45//15
f 10//16 26//16 24//16
f 11//17 60//17 40//17
f 10//18 58//18 57//18
f 7//19 54//19 51//19
f 12//20 6//20 16//20
f 2//21 34//21 18//21
f 5//22 13//22 29//22
f 4//23 35//23 30//23
f 14//24 38//24 15//24
f 16//25 17//25 37//25
f 17//26 13//26 5//26
f 15//27 5//27 14//27
f 16//28 15//28 8//28
f 18//29 13//29 55//29
f 9//30 18//30 43//30
f 16//31 6//31 17//31
f 8//32 12//32 16//32
f 19//33 14//33 35//33
f 10//34 19//34 26//34
f 22//35 20//35 47//35
f 21//36 20//36 2//36
f 24//37 22//37 3//37
f 25//38 23//38 11//38
f 21//39 23//39 3//39
f 24//40 11//40 58//40
f 11//41 23//41 60//41
f 11//42 24//42 25//42
f 24//43 26//43 22//43
f 22//44 26//44 4//44
f 27//45 21//45 2//45
f 21//46 27//46 23//46
f 27//47 18//47 9//47
f 26//48 19//48 4//48
f 4//49 20//49 22//49
f 2//50 20//50 1//50
f 30//51 29//51 33//51
f 2//52 28//52 34//52
f 30//53 1//53 4//53
f 29//54 28//54 33//54
f 29//55 13//55 28//55
f 14//56 29//56 30//56
f 31//57 8//57 41//57
f 31//58 12//58 8//58
f 32//59 46//59 43//59
f 32//60 12//60 48//60
f 33//61 28//61 1//61
f 33//62 1//62 30//62
f 18//63 34//63 13//63
f 34//64 28//64 13//64
f 35//65 4//65 19//65
f 30//66 35//66 14//66
f 19//67 56//67 14//67
f 15//68 38//68 8//68
f 17//69 36//69 13//69
f 37//70 17//70 5//70
f 36//71 44//71 55//71
f 37//72 15//72 16//72
f 39//73 11//73 50//73
f 31//74 39//74 51//74
f 32//75 40//75 46//75
f 40//76 52//76 50//76
f 41//77 10//77 45//77
f 42//78 38//78 56//78
f 41//79 42//79 19//79
f 43//80 44//80 6//80
f 44//81 36//81 6//81
f 43//82 6//82 32//82
f 45//83 31//83 41//83
f 45//84 39//84 31//84
f 43//85 46//85 9//85
f 46//86 40//86 59//86
f 47//87 3//87 22//87
f 21//88 47//88 20//88
f 31//89 48//89 12//89
f 48//90 49//90 32//90
f 50//91 52//91 7//91
f 49//92 54//92 7//92
f 51//93 54//93 48//93
f 53//94 50//94 7//94
f 51//95 53//95 7//95
f 49//96 52//96 40//96
f 50//97 11//97 40//97
f 50//98 53//98 39//98
f 51//99 39//99 53//99
f 40//100 32//100 49//100
f 48//101 31//101 51//101
f 49//102 48//102 54//102
f 43//103 18//103 44//103
f 19//104 10//104 41//104
f 55//105 44//105 18//105
f 55//106 13//106 36//106
f 56//107 19//107 42//107
f 14//108 56//108 38//108
f 57//109 58//109 39//109
f 45//110 57//110 39//110
f 58//111 10//111 24//111
f 59//112 9//112 46//112
f 59//113 60//113 9//113
f 60//114 23//114 9//114
f 39//115 58//115 11//115
f 40//116 60//116 59//116
