# Blender v2.79 (sub 0) OBJ File: 'Chibi.blend'
# www.blender.org
mtllib UpArm_D.mtl
o UpArm_D
v -0.708913 2.311609 0.030299
v -0.383531 2.388837 0.104208
v -0.725539 2.478034 0.121726
v -1.024446 2.381566 -0.037392
v -0.669539 2.324387 -0.132420
v -0.371633 2.305408 -0.046293
v -0.448826 2.594321 0.091261
v -0.698707 2.575535 -0.032700
v -0.663674 2.488156 -0.172932
v -0.386248 2.419015 -0.182765
v -0.244506 2.476114 -0.008536
v -0.410482 2.611533 -0.115740
v -0.736611 2.393074 0.104499
v -0.483798 2.356759 0.067046
v -0.492822 2.437639 0.103885
v -0.377303 2.333204 0.041994
v -0.465409 2.312422 -0.003174
v -1.000835 2.292211 0.023889
v -1.014827 2.408037 0.069863
v -0.704051 2.299154 -0.054244
v -0.978349 2.301793 -0.099105
v -0.444810 2.318807 -0.085579
v -0.291751 2.421060 0.050959
v -0.267965 2.368475 -0.021210
v -0.550567 2.526243 0.084144
v -0.371677 2.511361 0.136159
v -1.000988 2.489205 -0.024718
v -0.729703 2.545307 0.068986
v -0.676804 2.400234 -0.173108
v -0.978443 2.423543 -0.129146
v -0.312136 2.344902 -0.123798
v -0.430057 2.374338 -0.149960
v -0.291845 2.542810 0.020918
v -0.559690 2.575748 0.024123
v -0.693901 2.547870 -0.114700
v -0.487702 2.462754 -0.170359
v -0.253694 2.454179 -0.104600
v -0.416140 2.622927 -0.023406
v -0.268117 2.565468 -0.069817
v -0.574370 2.581592 -0.063417
v -0.555965 2.537734 -0.133987
v -0.378579 2.528082 -0.164252
vn 0.0135 -0.6708 0.7415
vn -0.0083 -0.7458 0.6661
vn 0.0280 -0.6679 0.7437
vn 0.0623 -0.9869 0.1490
vn 0.0235 -0.9889 0.1470
vn 0.5493 -0.5948 0.5869
vn 0.1234 0.2917 0.9485
vn -0.9773 0.2087 0.0361
vn -0.0598 -0.4763 -0.8772
vn 0.0581 -0.9068 -0.4175
vn 0.5513 -0.2601 0.7928
vn -0.0009 0.6169 0.7870
vn -0.9075 0.2385 -0.3459
vn 0.0334 -0.4700 -0.8820
vn 0.5249 -0.8506 -0.0305
vn 0.4249 0.8425 0.3313
vn -0.0308 0.9969 0.0717
vn -0.0515 0.6838 -0.7279
vn -0.0469 0.1704 -0.9843
vn 0.9770 0.1678 -0.1318
vn 0.4135 0.5706 -0.7096
vn 0.5538 0.3129 -0.7716
vn 0.4821 0.1136 -0.8687
vn -0.1246 0.4626 -0.8778
vn -0.1419 0.3245 -0.9352
vn 0.0842 0.4959 -0.8643
vn -0.3183 0.7657 -0.5589
vn -0.0118 0.8479 -0.5300
vn -0.1257 0.9378 -0.3237
vn -0.2190 0.9667 -0.1327
vn -0.2772 0.9545 0.1102
vn -0.2587 0.9520 0.1638
vn 0.3341 0.9377 -0.0952
vn 0.4287 0.8438 0.3228
vn 0.8326 0.4456 0.3290
vn 0.9771 -0.2075 -0.0461
vn 0.8665 -0.4146 -0.2778
vn 0.5298 -0.1363 -0.8371
vn -0.2725 -0.3814 -0.8833
vn 0.0733 -0.1786 -0.9812
vn 0.0146 -0.0002 -0.9999
vn -0.2313 0.6167 -0.7524
vn -0.3098 0.7733 -0.5531
vn -0.2678 0.9080 -0.3221
vn -0.1052 0.9615 0.2538
vn 0.0287 0.7733 0.6334
vn -0.4726 0.6433 0.6024
vn 0.4674 0.7156 0.5191
vn 0.7941 0.1462 0.5900
vn 0.6858 0.1748 0.7064
vn 0.0246 -0.6072 -0.7941
vn -0.0417 -0.7518 -0.6580
vn 0.1131 -0.7650 -0.6340
vn -0.1424 0.0232 -0.9895
vn -0.1580 -0.2367 -0.9587
vn -0.8640 -0.1212 -0.4887
vn -0.2642 0.9435 0.1999
vn -0.3521 0.7351 0.5793
vn -0.2778 0.5820 0.7643
vn -0.2476 0.2729 0.9296
vn -0.2765 0.0338 0.9604
vn -0.1104 -0.2408 0.9643
vn 0.8561 -0.2404 0.4574
vn 0.5388 -0.5864 0.6049
vn 0.4435 -0.8463 0.2950
vn -0.1231 -0.9866 -0.1072
vn 0.0682 -0.9959 -0.0601
vn 0.0371 -0.9557 -0.2921
vn 0.0385 -0.9558 -0.2915
vn 0.0030 -0.9970 -0.0771
vn -0.9070 -0.3733 -0.1949
vn -0.9770 -0.1694 0.1294
vn -0.1344 -0.3796 0.9154
vn -0.1311 -0.1806 0.9748
vn 0.0685 -0.9503 0.3036
vn -0.0659 -0.8514 0.5203
vn 0.0779 -0.8336 0.5468
vn 0.0397 -0.2035 0.9783
vn 0.0765 -0.4062 0.9106
vn -0.1921 -0.4245 0.8848
usemtl None
s off
f 1//1 14//1 13//1
f 2//2 14//2 16//2
f 1//3 13//3 18//3
f 1//4 18//4 20//4
f 1//5 20//5 17//5
f 2//6 16//6 23//6
f 3//7 15//7 25//7
f 4//8 19//8 27//8
f 5//9 21//9 29//9
f 6//10 22//10 31//10
f 2//11 23//11 26//11
f 3//12 25//12 28//12
f 4//13 27//13 30//13
f 5//14 29//14 32//14
f 6//15 31//15 24//15
f 7//16 33//16 38//16
f 8//17 34//17 40//17
f 9//18 35//18 41//18
f 10//19 36//19 42//19
f 11//20 37//20 39//20
f 39//21 42//21 12//21
f 39//22 37//22 42//22
f 37//23 10//23 42//23
f 42//24 41//24 12//24
f 42//25 36//25 41//25
f 36//26 9//26 41//26
f 41//27 40//27 12//27
f 41//28 35//28 40//28
f 35//29 8//29 40//29
f 40//30 38//30 12//30
f 40//31 34//31 38//31
f 34//32 7//32 38//32
f 38//33 39//33 12//33
f 38//34 33//34 39//34
f 33//35 11//35 39//35
f 24//36 37//36 11//36
f 24//37 31//37 37//37
f 31//38 10//38 37//38
f 32//39 36//39 10//39
f 32//40 29//40 36//40
f 29//41 9//41 36//41
f 30//42 35//42 9//42
f 30//43 27//43 35//43
f 27//44 8//44 35//44
f 28//45 34//45 8//45
f 28//46 25//46 34//46
f 25//47 7//47 34//47
f 26//48 33//48 7//48
f 26//49 23//49 33//49
f 23//50 11//50 33//50
f 31//51 32//51 10//51
f 31//52 22//52 32//52
f 22//53 5//53 32//53
f 29//54 30//54 9//54
f 29//55 21//55 30//55
f 21//56 4//56 30//56
f 27//57 28//57 8//57
f 27//58 19//58 28//58
f 19//59 3//59 28//59
f 25//60 26//60 7//60
f 25//61 15//61 26//61
f 15//62 2//62 26//62
f 23//63 24//63 11//63
f 23//64 16//64 24//64
f 16//65 6//65 24//65
f 17//66 22//66 6//66
f 17//67 20//67 22//67
f 20//68 5//68 22//68
f 20//69 21//69 5//69
f 20//70 18//70 21//70
f 18//71 4//71 21//71
f 18//72 19//72 4//72
f 18//73 13//73 19//73
f 13//74 3//74 19//74
f 16//75 17//75 6//75
f 16//76 14//76 17//76
f 14//77 1//77 17//77
f 13//78 15//78 3//78
f 13//79 14//79 15//79
f 14//80 2//80 15//80
