# Blender v2.79 (sub 0) OBJ File: 'Chibi.blend'
# www.blender.org
mtllib UpLag_D.mtl
o UpLag_D
v -0.329720 1.044894 0.133128
v -0.382633 1.633368 0.219579
v -0.329720 1.085594 0.005955
v -0.382633 1.633368 -0.173806
v -0.074211 1.044894 0.133128
v 0.011032 1.633368 0.219579
v -0.074211 1.085594 0.005955
v 0.011032 1.633368 -0.173806
v -0.220256 1.057636 -0.025780
v -0.113103 1.805241 -0.129477
v -0.220256 0.990891 0.216989
v -0.233972 1.722954 0.258350
v -0.203158 1.862365 0.040594
v -0.220256 1.571306 -0.220442
v -0.003858 1.485649 -0.123803
v -0.384873 1.485649 -0.123803
v -0.220256 1.394770 -0.140903
v -0.220256 1.148982 0.287642
v -0.111470 1.104189 0.245244
v -0.301444 1.104189 0.245244
v -0.024949 1.763039 0.130086
v -0.337775 1.747867 -0.091631
v -0.024949 1.747867 -0.066606
v -0.339558 1.774753 0.161109
v -0.218565 1.807832 0.149472
v -0.332022 1.761361 0.205208
v -0.103767 1.750022 0.196745
vn -0.9942 -0.0964 0.0480
vn 0.2584 -0.3122 -0.9142
vn 0.9794 -0.1922 -0.0615
vn -0.2440 -0.3957 0.8854
vn 0.2354 -0.9371 -0.2576
vn -0.2827 0.6299 -0.7234
vn 0.9540 0.2998 0.0000
vn -0.3075 -0.9175 -0.2523
vn 0.5439 -0.6535 0.5264
vn -0.3361 -0.3044 -0.8913
vn -0.5929 0.8003 -0.0893
vn 0.4642 0.5867 0.6635
vn -0.8856 0.3801 0.2668
vn 0.5428 0.8398 0.0053
vn 0.1045 0.3185 -0.9422
vn -0.1072 0.4026 -0.9091
vn 0.2714 -0.3330 -0.9030
vn -0.3658 -0.2934 -0.8832
vn 0.2376 -0.3990 -0.8856
vn -0.3061 -0.3911 -0.8680
vn 0.2133 -0.3352 -0.9177
vn -0.2763 -0.3308 -0.9023
vn -0.9430 -0.1298 0.3065
vn 0.1846 -0.4010 0.8973
vn 0.9950 -0.1003 0.0000
vn -0.9999 0.0152 0.0000
vn 0.3501 -0.0357 0.9360
vn -0.4514 -0.0260 0.8919
vn 0.8978 -0.1885 0.3981
vn -0.6544 -0.5876 0.4758
vn 0.5109 0.8571 -0.0661
vn 0.6849 0.6009 -0.4120
vn -0.9600 0.2775 -0.0363
vn 0.2436 0.8530 0.4617
vn -0.2910 0.8498 -0.4395
vn -0.2025 0.8868 0.4155
vn -0.2760 0.0424 0.9602
vn 0.1332 0.7724 0.6210
vn -0.0226 0.7900 0.6127
vn 0.1754 0.0544 0.9830
vn 0.9891 -0.1462 0.0200
vn 0.1744 -0.9378 -0.3001
vn -0.9872 -0.1519 -0.0486
vn -0.2300 -0.9269 -0.2966
vn 0.9668 0.2547 -0.0196
vn -0.9311 0.3648 0.0000
vn 0.3002 0.4591 0.8361
vn 0.2437 0.8563 0.4554
vn -0.3833 0.2513 0.8888
vn -0.2215 0.9219 0.3178
usemtl None
s off
f 1//1 2//1 16//1
f 9//2 17//2 7//2
f 7//3 15//3 5//3
f 11//4 18//4 20//4
f 9//5 7//5 11//5
f 10//6 4//6 22//6
f 8//7 23//7 6//7
f 3//8 9//8 11//8
f 5//9 19//9 11//9
f 3//10 17//10 9//10
f 13//11 22//11 24//11
f 6//12 21//12 27//12
f 2//13 26//13 24//13
f 13//14 23//14 10//14
f 8//15 14//15 10//15
f 14//16 4//16 10//16
f 15//17 14//17 8//17
f 14//18 16//18 4//18
f 15//19 17//19 14//19
f 17//20 16//20 14//20
f 7//21 17//21 15//21
f 17//22 3//22 16//22
f 2//23 1//23 20//23
f 11//24 19//24 18//24
f 6//25 15//25 8//25
f 16//26 2//26 4//26
f 18//27 19//27 6//27
f 20//28 18//28 2//28
f 19//29 5//29 6//29
f 20//30 1//30 11//30
f 21//31 23//31 13//31
f 10//32 23//32 8//32
f 24//33 22//33 2//33
f 25//34 21//34 13//34
f 22//35 13//35 10//35
f 24//36 25//36 13//36
f 2//37 18//37 12//37
f 25//38 12//38 27//38
f 25//39 26//39 12//39
f 6//40 12//40 18//40
f 5//41 15//41 6//41
f 11//42 7//42 5//42
f 16//43 3//43 1//43
f 11//44 1//44 3//44
f 6//45 23//45 21//45
f 2//46 22//46 4//46
f 27//47 12//47 6//47
f 27//48 21//48 25//48
f 12//49 26//49 2//49
f 24//50 26//50 25//50
