# Blender v2.79 (sub 0) OBJ File: 'Chibi.blend'
# www.blender.org
mtllib DownLag_E.mtl
o DownLag_E
v 0.090220 0.504628 0.060336
v 0.043182 1.079503 0.214875
v 0.091574 0.559945 -0.061186
v 0.045983 1.125593 -0.175790
v 0.345707 0.501618 0.061813
v 0.436813 1.074865 0.217151
v 0.347061 0.556935 -0.059709
v 0.439614 1.120955 -0.173515
v 0.200947 0.534610 -0.095346
v 0.317069 1.287901 -0.110060
v 0.198482 0.439886 0.137920
v 0.192541 1.162171 0.264740
v 0.226441 1.325762 0.065012
v 0.207995 1.067514 -0.228442
v 0.422742 0.968580 -0.141261
v 0.041760 0.973069 -0.143464
v 0.205483 0.882887 -0.170149
v 0.199722 0.588599 0.226618
v 0.308306 0.547803 0.179891
v 0.118348 0.550041 0.178792
v 0.402901 1.214543 0.143271
v 0.091514 1.229138 -0.080501
v 0.404135 1.222521 -0.053840
v 0.088228 1.226247 0.173634
v 0.209658 1.259034 0.166655
v 0.095302 1.207692 0.215902
v 0.323473 1.194734 0.207487
vn -0.9955 -0.0897 0.0306
vn 0.2615 -0.2059 -0.9430
vn 0.9777 -0.1952 -0.0780
vn -0.2547 -0.4938 0.8314
vn 0.2269 -0.9032 -0.3644
vn -0.2706 0.7136 -0.6462
vn 0.9572 0.2865 0.0407
vn -0.3158 -0.8780 -0.3599
vn 0.5329 -0.7171 0.4493
vn -0.3331 -0.1939 -0.9227
vn -0.5834 0.8122 0.0017
vn 0.4659 0.4994 0.7304
vn -0.8832 0.3567 0.3044
vn 0.5520 0.8270 0.1069
vn 0.1147 0.4254 -0.8977
vn -0.0963 0.5076 -0.8562
vn 0.2742 -0.2281 -0.9342
vn -0.3627 -0.1836 -0.9136
vn 0.2395 -0.2953 -0.9249
vn -0.3042 -0.2830 -0.9096
vn 0.2161 -0.2278 -0.9494
vn -0.2735 -0.2195 -0.9365
vn -0.9465 -0.1537 0.2837
vn 0.1738 -0.5055 0.8451
vn 0.9938 -0.1113 -0.0060
vn -0.9996 0.0268 -0.0040
vn 0.3430 -0.1492 0.9274
vn -0.4580 -0.1250 0.8801
vn 0.8928 -0.2444 0.3784
vn -0.6642 -0.6316 0.3999
vn 0.5208 0.8529 0.0378
vn 0.6944 0.6370 -0.3347
vn -0.9566 0.2911 -0.0091
vn 0.2496 0.7901 0.5599
vn -0.2785 0.8988 -0.3386
vn -0.1956 0.8343 0.5154
vn -0.2823 -0.0671 0.9570
vn 0.1373 0.6927 0.7080
vn -0.0183 0.7130 0.7009
vn 0.1690 -0.0633 0.9836
vn 0.9872 -0.1592 0.0084
vn 0.1662 -0.8982 -0.4070
vn -0.9884 -0.1335 -0.0718
vn -0.2381 -0.8830 -0.4046
vn 0.9697 0.2439 0.0159
vn -0.9270 0.3732 0.0374
vn 0.2993 0.3544 0.8859
vn 0.2499 0.7941 0.5540
vn -0.3868 0.1500 0.9099
vn -0.2136 0.8809 0.4224
usemtl None
s off
f 1//1 2//1 16//1
f 9//2 17//2 7//2
f 7//3 15//3 5//3
f 11//4 18//4 20//4
f 9//5 7//5 11//5
f 10//6 4//6 22//6
f 8//7 23//7 6//7
f 3//8 9//8 11//8
f 5//9 19//9 11//9
f 3//10 17//10 9//10
f 13//11 22//11 24//11
f 6//12 21//12 27//12
f 2//13 26//13 24//13
f 13//14 23//14 10//14
f 8//15 14//15 10//15
f 14//16 4//16 10//16
f 15//17 14//17 8//17
f 14//18 16//18 4//18
f 15//19 17//19 14//19
f 17//20 16//20 14//20
f 7//21 17//21 15//21
f 17//22 3//22 16//22
f 2//23 1//23 20//23
f 11//24 19//24 18//24
f 6//25 15//25 8//25
f 16//26 2//26 4//26
f 18//27 19//27 6//27
f 20//28 18//28 2//28
f 19//29 5//29 6//29
f 20//30 1//30 11//30
f 21//31 23//31 13//31
f 10//32 23//32 8//32
f 24//33 22//33 2//33
f 25//34 21//34 13//34
f 22//35 13//35 10//35
f 24//36 25//36 13//36
f 2//37 18//37 12//37
f 25//38 12//38 27//38
f 25//39 26//39 12//39
f 6//40 12//40 18//40
f 5//41 15//41 6//41
f 11//42 7//42 5//42
f 16//43 3//43 1//43
f 11//44 1//44 3//44
f 6//45 23//45 21//45
f 2//46 22//46 4//46
f 27//47 12//47 6//47
f 27//48 21//48 25//48
f 12//49 26//49 2//49
f 24//50 26//50 25//50
