# Blender v2.79 (sub 0) OBJ File: 'Chibi.blend'
# www.blender.org
mtllib DownLag_D.mtl
o DownLag_D
v -0.363783 0.521467 0.074816
v -0.418236 1.093912 0.216050
v -0.352151 0.569851 -0.051712
v -0.415529 1.133807 -0.170805
v -0.084696 0.510430 0.057561
v -0.048185 1.083949 0.219570
v -0.090567 0.568702 -0.066573
v -0.037340 1.127835 -0.160522
v -0.203276 0.545473 -0.102528
v -0.294667 1.297454 -0.113773
v -0.200329 0.448836 0.136039
v -0.187281 1.332547 0.075054
v -0.192501 1.071740 -0.215767
v -0.398430 1.240659 -0.070044
v -0.204536 0.600653 0.227993
v -0.119781 0.565978 0.180074
v -0.297290 0.560101 0.188719
v -0.179202 1.178111 0.265563
v -0.387401 1.232019 0.136496
v -0.033281 0.977080 -0.140682
v -0.312238 1.205602 0.197938
v -0.076744 1.212633 0.226083
v -0.188664 1.264457 0.175616
v -0.077940 1.271720 0.148860
v -0.065193 1.238539 -0.061745
v -0.403438 0.981083 -0.148060
v -0.191475 0.893547 -0.165977
vn -0.9957 -0.0917 -0.0120
vn 0.3324 -0.1800 -0.9258
vn 0.9797 -0.1594 -0.1212
vn -0.1326 -0.5162 0.8461
vn 0.2975 -0.8836 -0.3616
vn -0.4488 0.8891 0.0900
vn 0.3236 0.6740 -0.6641
vn -0.2688 -0.8939 -0.3588
vn 0.6403 -0.6139 0.4617
vn -0.3420 -0.1573 -0.9265
vn 0.1450 0.4612 -0.8754
vn -0.0800 0.3802 -0.9214
vn -0.9886 0.1501 0.0086
vn 0.9851 0.1686 0.0331
vn -0.5672 0.6113 -0.5520
vn -0.1836 -0.0558 0.9814
vn 0.2821 -0.0746 0.9565
vn -0.8111 -0.2117 0.5453
vn 0.4474 -0.1293 0.8849
vn -0.5021 -0.6865 0.5259
vn -0.3401 -0.1248 0.9321
vn 0.2659 -0.4940 0.8278
vn 0.9292 -0.1541 0.3360
vn -0.3299 0.4478 0.8310
vn 0.3505 0.0304 0.9361
vn 0.9676 0.2075 0.1438
vn -0.9659 0.2514 0.0621
vn -0.2437 0.7465 0.6191
vn -0.4227 0.5214 0.7413
vn -0.2065 0.6949 0.6888
vn 0.0229 0.7224 0.6911
vn -0.4331 0.8993 0.0607
vn 0.9990 0.0311 0.0321
vn 0.0941 0.7914 0.6041
vn 0.9783 0.2006 0.0511
vn 0.5344 0.8393 -0.0999
vn 0.9945 -0.0818 0.0654
vn 0.3053 0.8899 -0.3390
vn 0.0811 0.8248 0.5596
vn -0.2380 -0.1615 -0.9577
vn -0.2601 -0.8937 -0.3656
vn 0.1839 -0.8864 -0.4248
vn 0.2832 -0.2566 -0.9241
vn 0.3689 -0.1115 -0.9228
vn -0.1895 -0.2652 -0.9454
vn 0.2604 -0.2076 -0.9429
vn -0.1820 -0.2458 -0.9521
vn -0.9966 -0.0812 -0.0153
vn -0.9762 -0.1568 -0.1497
vn -0.2383 0.8057 0.5423
usemtl None
s off
f 1//1 2//1 26//1
f 9//2 27//2 7//2
f 7//3 20//3 5//3
f 11//4 15//4 17//4
f 9//5 7//5 11//5
f 10//6 14//6 12//6
f 8//7 10//7 25//7
f 3//8 9//8 11//8
f 5//9 16//9 11//9
f 3//10 27//10 9//10
f 8//11 13//11 10//11
f 13//12 4//12 10//12
f 2//13 14//13 4//13
f 6//14 25//14 24//14
f 4//15 14//15 10//15
f 2//16 15//16 18//16
f 15//17 6//17 18//17
f 1//18 17//18 2//18
f 15//19 16//19 6//19
f 17//20 1//20 11//20
f 2//21 17//21 15//21
f 11//22 16//22 15//22
f 6//23 16//23 5//23
f 18//24 21//24 2//24
f 18//25 6//25 22//25
f 6//26 24//26 22//26
f 19//27 14//27 2//27
f 19//28 21//28 23//28
f 2//29 21//29 19//29
f 23//30 21//30 18//30
f 22//31 23//31 18//31
f 12//32 14//32 19//32
f 6//33 20//33 8//33
f 22//34 24//34 23//34
f 25//35 6//35 8//35
f 24//36 25//36 12//36
f 5//37 20//37 6//37
f 12//38 25//38 10//38
f 23//39 24//39 12//39
f 13//40 26//40 4//40
f 11//41 1//41 3//41
f 11//42 7//42 5//42
f 20//43 27//43 13//43
f 13//44 8//44 20//44
f 27//45 26//45 13//45
f 7//46 27//46 20//46
f 27//47 3//47 26//47
f 26//48 2//48 4//48
f 26//49 3//49 1//49
f 23//50 12//50 19//50
