# Blender v2.79 (sub 0) OBJ File: 'Chibi.blend'
# www.blender.org
mtllib Hand_D.mtl
o Hand_D_HandD
v -1.799767 2.230975 0.113327
v -1.984793 2.451414 0.113327
v -1.773505 2.230975 -0.022706
v -1.984793 2.451414 -0.164089
v -1.496090 2.285868 0.081681
v -1.496090 2.418333 0.100857
v -1.496090 2.300122 -0.111576
v -1.496090 2.418333 -0.132980
v -1.699394 2.369683 0.113327
v -1.699394 2.369683 -0.164089
v -1.779600 2.300329 -0.022706
v -1.805861 2.300329 0.113327
v -1.966856 2.382060 0.113327
v -1.966856 2.382060 -0.164089
v -1.690507 2.319458 -0.022706
v -1.690507 2.319458 0.113327
v -1.773818 2.413651 0.113327
v -1.773818 2.413651 -0.164089
v -1.718598 2.508391 0.113327
v -1.718598 2.508391 -0.164089
v -1.634798 2.230975 -0.022706
v -1.634798 2.230975 0.113327
v -1.873539 2.508203 -0.164089
v -1.873539 2.508203 0.113327
v -1.870337 2.421332 -0.164089
v -1.870337 2.421332 0.113327
v -1.496090 2.457453 -0.025381
v -1.718598 2.545330 -0.025381
v -1.873539 2.545143 -0.025381
v -1.984793 2.488353 -0.025381
v -1.634798 2.196753 -0.025381
v -1.496090 2.251647 -0.025381
v -1.805831 2.196753 0.032858
v -1.811925 2.266107 0.032858
vn -0.9899 -0.0870 0.1116
vn 0.0000 0.0000 -1.0000
vn 1.0000 -0.0000 0.0000
vn 0.1655 0.0293 0.9858
vn -0.2031 -0.7766 -0.5964
vn 0.3480 0.8811 -0.3203
vn -0.5087 -0.8610 0.0000
vn -0.3050 0.9514 -0.0433
vn -0.9798 -0.2001 0.0000
vn -0.9847 -0.1743 0.0000
vn -0.0793 -0.9968 0.0000
vn -0.0012 0.9663 0.2573
vn 0.4019 -0.8890 0.2193
vn -0.4424 0.8666 0.2308
vn 0.3769 -0.9263 0.0000
vn 0.3530 0.8937 0.2770
vn 0.3758 0.8955 0.2385
vn 0.3928 0.8887 -0.2367
vn -0.0012 0.9663 -0.2573
vn -0.4424 0.8666 -0.2308
vn 0.3527 -0.8913 0.2849
vn -0.5609 0.0645 -0.8253
vn 0.1293 -0.9160 0.3798
vn 0.3261 -0.8240 -0.4634
vn -0.8415 -0.0739 -0.5351
vn 0.0000 0.0000 1.0000
vn 0.0946 -0.1426 0.9852
vn 0.0219 0.0030 0.9998
vn 0.1785 0.1124 0.9775
vn 0.1897 -0.1749 -0.9661
vn -0.2343 -0.9206 -0.3123
vn -0.4225 -0.2660 -0.8664
vn 0.1465 0.0203 -0.9890
vn 0.0000 -0.9709 0.2395
vn 0.0000 0.0779 -0.9970
usemtl None
s off
f 1//1 12//1 34//1 33//1
f 3//2 15//2 21//2
f 7//3 8//3 27//3 6//3 5//3 32//3
f 5//4 9//4 16//4
f 3//5 31//5 33//5
f 8//6 28//6 27//6
f 10//7 9//7 17//7 18//7
f 11//8 34//8 12//8 16//8 15//8
f 14//9 13//9 2//9 30//9 4//9
f 15//10 16//10 9//10 10//10
f 18//11 17//11 26//11 25//11
f 19//12 28//12 24//12
f 22//13 31//13 5//13
f 24//14 29//14 2//14
f 25//15 26//15 13//15 14//15
f 27//16 28//16 6//16
f 6//17 28//17 19//17
f 28//18 8//18 20//18
f 29//19 28//19 23//19
f 30//20 29//20 4//20
f 24//12 28//12 29//12
f 2//14 29//14 30//14
f 23//19 28//19 20//19
f 4//20 29//20 23//20
f 5//21 31//21 32//21
f 7//22 31//22 21//22
f 33//23 31//23 1//23
f 32//24 31//24 7//24
f 33//25 34//25 11//25 3//25
f 22//26 16//26 12//26 1//26
f 9//27 5//27 6//27
f 6//28 19//28 24//28 2//28 13//28 26//28 17//28 9//28
f 16//29 22//29 5//29
f 7//30 10//30 8//30
f 10//31 7//31 15//31
f 21//32 15//32 7//32
f 15//2 3//2 11//2
f 8//33 10//33 20//33
f 1//34 31//34 22//34
f 31//35 3//35 21//35
f 20//2 10//2 18//2
f 18//2 25//2 23//2
f 23//2 25//2 14//2 4//2
f 23//2 20//2 18//2
