# Blender v2.79 (sub 0) OBJ File: 'Chibi.blend'
# www.blender.org
mtllib Hand_E.mtl
o Hand_E
v 1.790261 2.219510 -0.009638
v 2.046550 2.385455 -0.169511
v 1.828835 2.218150 0.111591
v 2.051470 2.384095 0.107858
v 1.528334 2.327260 -0.115846
v 1.567984 2.451205 -0.139486
v 1.533255 2.325900 0.073351
v 1.572904 2.449845 0.095608
v 1.750050 2.371540 -0.164319
v 1.754971 2.370180 0.113050
v 1.850715 2.284243 0.111527
v 1.812142 2.285603 -0.009702
v 2.013145 2.322085 -0.169229
v 2.018066 2.320725 0.108140
v 1.734772 2.323346 0.113179
v 1.729851 2.324706 -0.008050
v 1.832579 2.397217 -0.165657
v 1.837500 2.395857 0.111712
v 1.800638 2.502114 -0.164576
v 1.805559 2.500754 0.112792
v 1.660215 2.250045 0.114142
v 1.655294 2.251405 -0.007087
v 1.956278 2.464944 0.109943
v 1.951357 2.466304 -0.167426
v 1.933182 2.381139 0.109942
v 1.928262 2.382499 -0.167427
v 1.579441 2.488597 -0.021821
v 1.811594 2.537383 -0.025866
v 1.962313 2.501573 -0.028716
v 2.057506 2.420724 -0.030801
v 1.649883 2.217420 -0.024566
v 1.522924 2.293276 -0.021991
v 1.819919 2.178092 0.056634
v 1.841800 2.244185 0.056570
vn 0.8061 -0.2674 -0.5279
vn 0.0142 -0.0024 0.9999
vn -0.9572 0.2883 0.0240
vn 0.4198 -0.4375 -0.7952
vn -0.4350 -0.6926 0.5754
vn -0.1913 0.9352 0.2980
vn 0.2969 -0.9549 -0.0099
vn 0.4948 0.8629 -0.1026
vn 0.9073 -0.4200 -0.0182
vn 0.9020 -0.4311 -0.0252
vn -0.1521 -0.9884 -0.0021
vn 0.2188 0.9414 -0.2567
vn 0.7088 0.2301 -0.6669
vn 0.6257 0.7428 -0.2383
vn -0.5798 -0.8148 0.0063
vn -0.2022 0.9389 -0.2787
vn -0.2312 0.9471 -0.2226
vn -0.2244 0.9445 0.2398
vn 0.2279 0.9389 0.2579
vn 0.6338 0.7405 0.2232
vn 0.2280 0.9389 0.2579
vn -0.4905 -0.8100 -0.3216
vn -0.5525 -0.8013 0.2296
vn 0.0710 -0.8313 -0.5513
vn -0.4792 -0.8132 0.3302
vn 0.9467 -0.3133 0.0748
vn -0.1874 0.2032 0.9610
vn -0.1500 -0.1281 0.9804
vn -0.0177 0.0088 0.9998
vn -0.1921 0.0856 0.9776
vn 0.1318 -0.9541 -0.2689
vn -0.1879 -0.1257 -0.9741
vn -0.0177 0.0049 -0.9998
vn -0.1165 0.0432 -0.9923
vn -0.1770 -0.9550 0.2378
vn 0.0882 0.4445 -0.8914
usemtl None
s off
f 1//1 12//1 34//1 33//1
f 3//2 11//2 15//2 21//2
f 7//3 8//3 27//3 6//3 5//3 32//3
f 5//4 16//4 22//4
f 3//5 31//5 33//5
f 8//6 28//6 27//6
f 10//7 9//7 17//7 18//7
f 11//8 34//8 12//8 16//8 15//8
f 14//9 13//9 2//9 30//9 4//9
f 15//10 16//10 9//10 10//10
f 18//11 17//11 26//11 25//11
f 19//12 28//12 24//12
f 22//13 31//13 5//13
f 24//14 29//14 2//14
f 25//15 26//15 13//15 14//15
f 27//16 28//16 6//16
f 6//17 28//17 19//17
f 28//18 8//18 20//18
f 29//19 28//19 23//19
f 30//20 29//20 4//20
f 24//12 28//12 29//12
f 2//14 29//14 30//14
f 23//21 28//21 20//21
f 4//20 29//20 23//20
f 5//22 31//22 32//22
f 7//23 31//23 21//23
f 33//24 31//24 1//24
f 32//25 31//25 7//25
f 33//26 34//26 11//26 3//26
f 21//27 15//27 7//27
f 7//28 10//28 8//28
f 8//29 10//29 18//29 25//29 14//29 4//29 23//29 20//29
f 7//30 15//30 10//30
f 16//31 5//31 9//31
f 9//32 5//32 6//32
f 22//33 16//33 1//33
f 1//33 16//33 12//33
f 6//34 19//34 9//34
f 31//35 3//35 21//35
f 1//36 31//36 22//36
f 9//33 19//33 17//33
f 17//33 19//33 24//33
f 24//33 2//33 13//33 26//33
f 26//33 17//33 24//33
