# Blender v2.79 (sub 0) OBJ File: ''
# www.blender.org
mtllib head.mtl
o Cube
v 0.001480 0.618864 -0.491513
v 0.265689 0.605994 -0.331657
v 0.004119 -0.179204 0.363754
v -0.283304 0.609984 -0.289848
v -0.000344 1.903492 -0.982275
v 0.605544 2.023123 0.354913
v -0.015051 0.995481 1.092977
v -0.577838 1.998584 0.360792
v 0.538340 0.669771 0.157670
v -0.573392 0.666447 0.163492
v -0.005184 0.445845 0.783100
v 0.005758 2.064965 0.689202
v 0.666285 1.569458 -0.768828
v -0.663377 1.557665 -0.804384
v -0.567159 2.091759 -0.411870
v -0.004105 2.329312 0.010442
v 0.542523 2.127242 -0.397188
v 0.673798 0.881996 -0.164448
v -0.716365 0.902594 -0.124303
v -0.005691 -0.100567 -0.410926
v 0.338680 -0.107363 -0.109859
v -0.342957 -0.136743 -0.062134
v 0.217686 0.497558 0.181081
v -0.254477 0.513626 0.188717
v -0.011797 0.418597 0.336695
v -0.398960 0.494719 -0.079540
v 0.365645 0.488597 -0.083183
v 0.312678 0.932087 -0.821006
v 0.001084 1.329591 -1.089921
v -0.300014 0.926190 -0.838784
v -0.500264 1.671941 0.711874
v 0.510700 1.684210 0.708935
v 0.001282 0.823220 -0.838050
v 0.591013 0.968530 -0.564418
v -0.589879 0.943641 -0.535228
v 0.764421 1.898385 -0.206957
v -0.002224 2.175518 -0.688350
v -0.740023 1.880219 -0.221796
v -0.460959 0.843659 0.674107
v 0.452438 0.845321 0.671196
v -0.801567 1.332515 0.262142
v -0.824304 1.606809 0.013614
v 0.797274 1.346447 0.256291
v 0.838723 1.638515 -0.009399
v -0.665953 1.085402 0.485294
v 0.637936 1.093199 0.529458
v -0.000786 -0.323548 -0.062619
v -0.004647 1.678195 0.928172
v 0.074649 1.180414 0.858126
v -0.010117 0.866635 0.989016
v -0.100618 1.174279 0.859596
v 0.134225 0.994287 0.914081
v -0.140109 0.993456 0.915537
v -0.009849 1.226367 0.911865
v 0.794921 1.419926 -0.332560
v -0.810564 1.391407 -0.319906
vn -0.5740 -0.0855 -0.8144
vn -0.4041 0.6700 -0.6227
vn 0.2722 -0.8126 -0.5154
vn 0.6138 -0.5893 -0.5253
vn -0.5132 0.0252 0.8579
vn -0.3383 0.1727 -0.9251
vn 0.5481 0.0524 0.8348
vn 0.4224 0.5956 0.6833
vn -0.9000 0.2493 0.3575
vn -0.8940 0.4169 0.1642
vn 0.7006 0.7125 0.0399
vn 0.5440 -0.7967 0.2634
vn 0.7045 0.4014 0.5852
vn 0.4691 -0.8339 0.2909
vn -0.8314 -0.4422 0.3365
vn -0.4319 -0.8531 0.2928
vn 0.6644 -0.6662 0.3389
vn -0.6593 -0.6534 0.3720
vn -0.6287 0.4887 0.6049
vn 0.2566 0.9019 0.3475
vn 0.6145 -0.7352 -0.2862
vn 0.3774 0.1716 -0.9100
vn -0.4898 -0.7618 -0.4239
vn -0.8544 0.3988 -0.3332
vn 0.1972 0.9576 -0.2102
vn 0.4928 0.5556 -0.6697
vn -0.4779 0.5745 -0.6645
vn -0.4500 0.8873 0.1008
vn 0.8771 -0.3117 -0.3655
vn 0.9176 -0.3717 0.1410
vn 0.4049 0.9097 0.0920
vn -0.2981 0.8880 0.3502
vn -0.9195 -0.2449 -0.3075
vn -0.7769 -0.6179 -0.1210
vn -0.4195 -0.7672 -0.4852
vn 0.6473 -0.1651 -0.7441
vn -0.7747 -0.1330 0.6181
vn 0.3561 -0.9330 0.0517
vn 0.8197 -0.1067 0.5628
vn -0.4359 -0.8964 0.0806
vn 0.4764 -0.8733 0.1014
vn -0.3964 -0.9160 0.0618
vn -0.8767 -0.0646 0.4767
vn -0.8511 -0.0897 -0.5172
vn 0.9234 -0.0246 -0.3831
vn 0.8700 -0.0613 0.4892
vn 0.7757 -0.6253 -0.0858
vn -0.5897 -0.5262 -0.6127
vn -0.7020 -0.1558 -0.6949
vn 0.5114 -0.1007 -0.8534
vn -0.1484 -0.4405 -0.8854
vn 0.5062 -0.7393 -0.4441
vn -0.3057 -0.8290 -0.4682
vn 0.2005 -0.4362 -0.8772
vn 0.4831 -0.1982 -0.8528
vn -0.4458 -0.2091 -0.8704
vn -0.8802 0.2345 0.4127
vn -0.4413 0.6063 0.6616
vn 0.8531 0.0254 0.5211
vn 0.3368 0.4883 0.8050
vn 0.3125 -0.8182 -0.4827
vn -0.2813 -0.8267 -0.4873
vn 0.9498 -0.2006 -0.2400
vn 0.6655 -0.3137 -0.6773
vn -0.6070 -0.7503 -0.2618
vn -0.6851 -0.3597 -0.6335
vn -0.8715 -0.3175 -0.3737
vn -0.7405 0.6683 0.0704
vn 0.8015 0.4445 -0.4002
vn 0.3930 0.6761 -0.6232
vn 0.9705 0.1172 -0.2108
vn -0.2428 0.9473 -0.2091
vn -0.5162 -0.3813 0.7669
vn -0.4120 -0.0610 0.9091
vn 0.6703 -0.0797 0.7378
vn 0.5555 -0.1477 0.8183
vn -0.9219 -0.3426 0.1809
vn -0.9738 0.1707 -0.1504
vn -0.9883 -0.1391 -0.0631
vn 0.9080 0.2040 0.3659
vn 0.9058 0.3882 0.1699
vn 0.8874 0.1902 0.4199
vn -0.8401 0.0281 0.5417
vn -0.7168 -0.0657 0.6942
vn 0.9090 -0.3745 0.1830
vn 0.8382 -0.4576 0.2967
vn -0.4583 -0.8402 0.2897
vn 0.4170 -0.7628 -0.4942
vn -0.3520 0.4988 0.7920
vn 0.3913 -0.0668 0.9179
vn 0.6883 -0.4394 0.5772
vn 0.6411 0.4647 0.6108
vn -0.4877 -0.0259 0.8727
vn -0.7290 -0.4466 0.5189
vn -0.7718 0.3356 0.5401
vn 0.6670 0.4021 0.6273
vn 0.5139 -0.3722 0.7729
vn -0.5658 -0.1061 0.8177
vn -0.6621 0.3497 0.6629
vn 0.3929 -0.0685 0.9170
vn -0.3990 -0.0486 0.9157
vn 0.5220 -0.0368 0.8522
vn 0.9776 -0.1995 -0.0667
vn -0.9227 -0.3424 0.1774
vn 0.9764 -0.2156 0.0135
vn 0.9625 0.1246 -0.2411
vn -0.9844 -0.1636 0.0651
vn -0.9563 0.1837 -0.2275
usemtl Material
s off
f 1//1 20//1 4//1
f 5//2 15//2 37//2
f 1//3 28//3 2//3
f 2//4 18//4 27//4
f 3//5 25//5 24//5
f 5//6 29//6 14//6
f 3//7 23//7 25//7
f 6//8 12//8 32//8
f 8//9 42//9 41//9
f 8//10 38//10 42//10
f 6//11 36//11 17//11
f 3//12 47//12 21//12
f 7//13 52//13 49//13
f 9//14 23//14 27//14
f 10//15 39//15 45//15
f 10//16 26//16 24//16
f 11//17 9//17 40//17
f 10//18 11//18 39//18
f 7//19 54//19 51//19
f 12//20 6//20 16//20
f 2//21 34//21 18//21
f 5//22 13//22 29//22
f 4//23 35//23 30//23
f 14//24 38//24 15//24
f 16//25 17//25 37//25
f 17//26 13//26 5//26
f 15//27 5//27 14//27
f 16//28 15//28 8//28
f 18//29 13//29 55//29
f 9//30 18//30 43//30
f 16//31 6//31 17//31
f 8//32 12//32 16//32
f 19//33 14//33 35//33
f 10//34 19//34 26//34
f 22//35 20//35 47//35
f 21//36 20//36 2//36
f 24//37 22//37 3//37
f 25//38 23//38 11//38
f 21//39 23//39 3//39
f 24//40 11//40 10//40
f 11//41 23//41 9//41
f 11//42 24//42 25//42
f 24//43 26//43 22//43
f 22//44 26//44 4//44
f 27//45 21//45 2//45
f 21//46 27//46 23//46
f 27//47 18//47 9//47
f 26//48 19//48 4//48
f 4//49 20//49 22//49
f 2//50 20//50 1//50
f 30//51 29//51 33//51
f 2//52 28//52 34//52
f 30//53 1//53 4//53
f 29//54 28//54 33//54
f 29//55 13//55 28//55
f 14//56 29//56 30//56
f 31//57 8//57 41//57
f 31//58 12//58 8//58
f 32//59 46//59 43//59
f 32//60 12//60 48//60
f 33//61 28//61 1//61
f 33//62 1//62 30//62
f 18//63 34//63 13//63
f 34//64 28//64 13//64
f 35//65 4//65 19//65
f 30//66 35//66 14//66
f 19//67 56//67 14//67
f 15//68 38//68 8//68
f 17//69 36//69 13//69
f 37//70 17//70 5//70
f 36//71 44//71 55//71
f 37//72 15//72 16//72
f 39//73 11//73 50//73
f 31//74 39//74 51//74
f 32//75 40//75 46//75
f 40//76 52//76 50//76
f 41//77 10//77 45//77
f 42//78 38//78 56//78
f 41//79 42//79 19//79
f 43//80 44//80 6//80
f 44//81 36//81 6//81
f 43//82 6//82 32//82
f 45//83 31//83 41//83
f 45//84 39//84 31//84
f 43//85 46//85 9//85
f 46//86 40//86 9//86
f 47//87 3//87 22//87
f 21//88 47//88 20//88
f 31//89 48//89 12//89
f 48//90 49//90 32//90
f 50//91 52//91 7//91
f 49//92 54//92 7//92
f 51//93 54//93 48//93
f 53//94 50//94 7//94
f 51//95 53//95 7//95
f 49//96 52//96 40//96
f 50//97 11//97 40//97
f 50//98 53//98 39//98
f 51//99 39//99 53//99
f 40//100 32//100 49//100
f 48//101 31//101 51//101
f 49//102 48//102 54//102
f 43//103 18//103 44//103
f 19//104 10//104 41//104
f 55//105 44//105 18//105
f 55//106 13//106 36//106
f 56//107 19//107 42//107
f 14//108 56//108 38//108
