# Blender v2.79 (sub 0) OBJ File: 'Chibi.blend'
# www.blender.org
mtllib UpArm_E.mtl
o UpArm_E
v 0.722938 2.578393 -0.019424
v 0.432400 2.595050 0.050652
v 0.743094 2.484241 0.134156
v 1.080705 2.414266 -0.016195
v 0.725932 2.502110 -0.148073
v 0.437419 2.597163 -0.121751
v 0.430971 2.400196 0.141510
v 0.721615 2.319870 0.047562
v 0.704893 2.343986 -0.119864
v 0.378712 2.431773 -0.187225
v 0.295490 2.492240 -0.020895
v 0.416407 2.312682 -0.036043
v 0.737737 2.559457 0.080367
v 0.600950 2.574979 0.012543
v 0.572671 2.532598 0.083577
v 0.437620 2.614330 -0.030621
v 0.591871 2.583007 -0.071646
v 1.076647 2.524644 -0.006334
v 1.066334 2.444468 0.089533
v 0.708708 2.558149 -0.099788
v 1.051994 2.461955 -0.112104
v 0.569951 2.542067 -0.124234
v 0.340890 2.559092 0.036510
v 0.340889 2.574282 -0.080101
v 0.515130 2.436308 0.113127
v 0.416168 2.507252 0.134863
v 1.035307 2.332225 0.043011
v 0.736600 2.391759 0.125765
v 0.736132 2.407789 -0.153901
v 1.026444 2.343033 -0.081606
v 0.391390 2.537373 -0.177083
v 0.523183 2.477625 -0.156276
v 0.327980 2.440169 0.067008
v 0.513369 2.363461 0.084373
v 0.722265 2.313875 -0.037898
v 0.490212 2.381202 -0.146224
v 0.311475 2.463559 -0.114707
v 0.423900 2.327038 0.050978
v 0.302474 2.381862 -0.030757
v 0.504010 2.313960 0.011557
v 0.494814 2.321412 -0.072718
v 0.402416 2.348346 -0.120716
vn 0.0206 0.9828 0.1834
vn 0.1677 0.9567 0.2377
vn 0.1423 0.9761 0.1641
vn 0.1544 0.9513 -0.2670
vn 0.1392 0.9542 -0.2650
vn -0.3843 0.9035 0.1897
vn -0.1634 0.3774 0.9115
vn 0.9122 -0.3443 0.2223
vn 0.1183 0.0740 -0.9902
vn 0.2203 0.5657 -0.7946
vn -0.3652 0.6787 0.6372
vn -0.0738 -0.0850 0.9936
vn 0.8356 -0.5390 -0.1062
vn 0.0325 0.0651 -0.9973
vn -0.3980 0.7691 -0.5000
vn -0.6104 -0.5921 0.5261
vn -0.0715 -0.8206 0.5670
vn 0.0224 -0.9369 -0.3489
vn 0.0055 -0.6224 -0.7827
vn -0.9870 -0.0488 -0.1533
vn -0.5098 -0.8197 -0.2610
vn -0.6666 -0.4972 -0.5553
vn -0.7200 -0.5460 -0.4283
vn -0.0734 -0.9234 -0.3768
vn 0.1041 -0.7684 -0.6315
vn -0.0575 -0.7763 -0.6278
vn 0.0661 -0.9933 -0.0950
vn -0.0199 -0.9961 -0.0859
vn 0.0155 -0.9974 0.0701
vn -0.0774 -0.9826 0.1688
vn 0.1333 -0.8275 0.5454
vn 0.0846 -0.7782 0.6223
vn -0.5041 -0.8441 0.1827
vn -0.6160 -0.5954 0.5158
vn -0.9501 -0.0869 0.2997
vn -0.9122 0.3216 -0.2538
vn -0.7593 0.3692 -0.5359
vn -0.6911 0.1509 -0.7069
vn 0.2625 -0.1884 -0.9463
vn -0.0206 -0.0967 -0.9951
vn 0.0245 -0.4799 -0.8770
vn 0.0391 -0.9352 -0.3519
vn 0.0819 -0.9924 -0.0919
vn 0.0403 -0.9967 0.0702
vn -0.0332 -0.7326 0.6798
vn -0.1255 -0.3616 0.9238
vn 0.4284 -0.3407 0.8369
vn -0.5940 -0.0322 0.8038
vn -0.7020 0.2475 0.6678
vn -0.8706 0.2087 0.4455
vn 0.1871 0.0716 -0.9797
vn 0.2671 0.2666 -0.9261
vn -0.0191 0.4562 -0.8897
vn 0.1004 -0.5061 -0.8566
vn 0.1729 -0.2794 -0.9445
vn 0.8676 -0.2900 -0.4039
vn 0.0389 -0.7393 0.6722
vn 0.1648 -0.4162 0.8942
vn 0.1242 -0.0983 0.9874
vn 0.2800 0.0980 0.9550
vn 0.2922 0.1167 0.9492
vn 0.1293 0.6739 0.7275
vn -0.8514 0.5201 0.0678
vn -0.4303 0.8951 0.1166
vn -0.2983 0.9381 -0.1761
vn 0.2780 0.6984 -0.6596
vn 0.0180 0.7853 -0.6189
vn 0.0551 0.6614 -0.7480
vn 0.1625 0.6723 -0.7223
vn 0.2103 0.8187 -0.5343
vn 0.9640 0.0586 -0.2594
vn 0.9915 0.0251 0.1276
vn 0.2384 0.7322 0.6380
vn 0.1810 0.5806 0.7938
vn 0.1486 0.9718 -0.1834
vn 0.2163 0.9739 0.0695
vn -0.0029 0.9955 0.0952
vn -0.0779 0.5762 0.8136
vn -0.1330 0.8735 0.4682
vn 0.2221 0.7959 0.5633
usemtl None
s off
f 1//1 14//1 13//1
f 2//2 14//2 16//2
f 1//3 13//3 18//3
f 1//4 18//4 20//4
f 1//5 20//5 17//5
f 2//6 16//6 23//6
f 3//7 15//7 25//7
f 4//8 19//8 27//8
f 5//9 21//9 29//9
f 6//10 22//10 31//10
f 2//11 23//11 26//11
f 3//12 25//12 28//12
f 4//13 27//13 30//13
f 5//14 29//14 32//14
f 6//15 31//15 24//15
f 7//16 33//16 38//16
f 8//17 34//17 40//17
f 9//18 35//18 41//18
f 10//19 36//19 42//19
f 11//20 37//20 39//20
f 39//21 42//21 12//21
f 39//22 37//22 42//22
f 37//23 10//23 42//23
f 42//24 41//24 12//24
f 42//25 36//25 41//25
f 36//26 9//26 41//26
f 41//27 40//27 12//27
f 41//28 35//28 40//28
f 35//29 8//29 40//29
f 40//30 38//30 12//30
f 40//31 34//31 38//31
f 34//32 7//32 38//32
f 38//33 39//33 12//33
f 38//34 33//34 39//34
f 33//35 11//35 39//35
f 24//36 37//36 11//36
f 24//37 31//37 37//37
f 31//38 10//38 37//38
f 32//39 36//39 10//39
f 32//40 29//40 36//40
f 29//41 9//41 36//41
f 30//42 35//42 9//42
f 30//43 27//43 35//43
f 27//44 8//44 35//44
f 28//45 34//45 8//45
f 28//46 25//46 34//46
f 25//47 7//47 34//47
f 26//48 33//48 7//48
f 26//49 23//49 33//49
f 23//50 11//50 33//50
f 31//51 32//51 10//51
f 31//52 22//52 32//52
f 22//53 5//53 32//53
f 29//54 30//54 9//54
f 29//55 21//55 30//55
f 21//56 4//56 30//56
f 27//57 28//57 8//57
f 27//58 19//58 28//58
f 19//59 3//59 28//59
f 25//60 26//60 7//60
f 25//61 15//61 26//61
f 15//62 2//62 26//62
f 23//63 24//63 11//63
f 23//64 16//64 24//64
f 16//65 6//65 24//65
f 17//66 22//66 6//66
f 17//67 20//67 22//67
f 20//68 5//68 22//68
f 20//69 21//69 5//69
f 20//70 18//70 21//70
f 18//71 4//71 21//71
f 18//72 19//72 4//72
f 18//73 13//73 19//73
f 13//74 3//74 19//74
f 16//75 17//75 6//75
f 16//76 14//76 17//76
f 14//77 1//77 17//77
f 13//78 15//78 3//78
f 13//79 14//79 15//79
f 14//80 2//80 15//80
