# Blender v2.79 (sub 0) OBJ File: 'Chibi.blend'
# www.blender.org
mtllib UpLag_E.mtl
o UpLag_E
v 0.081577 1.045914 0.147283
v 0.021202 1.630333 0.220858
v 0.091907 1.079255 0.015877
v 0.021202 1.624627 -0.168016
v 0.360670 1.036007 0.129452
v 0.391358 1.624932 0.222886
v 0.353397 1.079255 -0.000609
v 0.399488 1.624071 -0.159798
v 0.240763 1.050730 -0.032792
v 0.140456 1.795154 -0.131413
v 0.246226 0.982767 0.215427
v 0.248511 1.853324 0.051233
v 0.244682 1.560179 -0.206984
v 0.037623 1.742737 -0.080592
v 0.240763 1.144262 0.288989
v 0.325642 1.105145 0.244860
v 0.148268 1.098366 0.255398
v 0.259509 1.722387 0.258462
v 0.049947 1.758493 0.125454
v 0.405437 1.476736 -0.122461
v 0.125770 1.740291 0.189030
v 0.361323 1.753169 0.214480
v 0.248511 1.797483 0.159087
v 0.358985 1.802779 0.130876
v 0.370905 1.745278 -0.074476
v 0.035222 1.475766 -0.127621
v 0.248095 1.389074 -0.136667
vn -0.9946 -0.1035 0.0059
vn 0.3292 -0.2836 -0.9007
vn 0.9808 -0.1617 -0.1086
vn -0.1216 -0.4149 0.9017
vn 0.3058 -0.9166 -0.2577
vn -0.4587 0.8885 -0.0116
vn 0.3118 0.5950 -0.7408
vn -0.2603 -0.9327 -0.2496
vn 0.6502 -0.5484 0.5259
vn -0.3455 -0.2686 -0.8992
vn 0.1345 0.3569 -0.9244
vn -0.0898 0.2686 -0.9591
vn -0.9903 0.1392 -0.0020
vn 0.9833 0.1821 0.0061
vn -0.5775 0.5360 -0.6157
vn -0.1773 0.0576 0.9825
vn 0.2885 0.0412 0.9566
vn -0.8054 -0.1552 0.5721
vn 0.4540 -0.0197 0.8908
vn -0.4909 -0.6256 0.6063
vn -0.3332 -0.0184 0.9427
vn 0.2765 -0.3906 0.8781
vn 0.9329 -0.1034 0.3451
vn -0.3303 0.5385 0.7752
vn 0.3555 0.1438 0.9236
vn 0.9659 0.2335 0.1116
vn -0.9684 0.2463 0.0391
vn -0.2489 0.8112 0.5291
vn -0.4245 0.6000 0.6781
vn -0.2107 0.7685 0.6041
vn 0.0184 0.7987 0.6015
vn -0.4433 0.8954 -0.0420
vn 0.9987 0.0457 0.0211
vn 0.0882 0.8577 0.5065
vn 0.9762 0.2159 0.0203
vn 0.5238 0.8277 -0.2013
vn 0.9958 -0.0626 0.0675
vn 0.2929 0.8473 -0.4431
vn 0.0746 0.8856 0.4585
vn -0.2416 -0.2753 -0.9305
vn -0.2517 -0.9332 -0.2566
vn 0.1918 -0.9280 -0.3193
vn 0.2809 -0.3600 -0.8897
vn 0.3648 -0.2148 -0.9060
vn -0.1918 -0.3763 -0.9064
vn 0.2574 -0.3139 -0.9139
vn -0.1846 -0.3577 -0.9154
vn -0.9956 -0.0934 0.0014
vn -0.9751 -0.1840 -0.1234
vn -0.2446 0.8611 0.4458
usemtl None
s off
f 1//1 2//1 26//1
f 9//2 27//2 7//2
f 7//3 20//3 5//3
f 11//4 15//4 17//4
f 9//5 7//5 11//5
f 10//6 14//6 12//6
f 8//7 10//7 25//7
f 3//8 9//8 11//8
f 5//9 16//9 11//9
f 3//10 27//10 9//10
f 8//11 13//11 10//11
f 13//12 4//12 10//12
f 2//13 14//13 4//13
f 6//14 25//14 24//14
f 4//15 14//15 10//15
f 2//16 15//16 18//16
f 15//17 6//17 18//17
f 1//18 17//18 2//18
f 15//19 16//19 6//19
f 17//20 1//20 11//20
f 2//21 17//21 15//21
f 11//22 16//22 15//22
f 6//23 16//23 5//23
f 18//24 21//24 2//24
f 18//25 6//25 22//25
f 6//26 24//26 22//26
f 19//27 14//27 2//27
f 19//28 21//28 23//28
f 2//29 21//29 19//29
f 23//30 21//30 18//30
f 22//31 23//31 18//31
f 12//32 14//32 19//32
f 6//33 20//33 8//33
f 22//34 24//34 23//34
f 25//35 6//35 8//35
f 24//36 25//36 12//36
f 5//37 20//37 6//37
f 12//38 25//38 10//38
f 23//39 24//39 12//39
f 13//40 26//40 4//40
f 11//41 1//41 3//41
f 11//42 7//42 5//42
f 20//43 27//43 13//43
f 13//44 8//44 20//44
f 27//45 26//45 13//45
f 7//46 27//46 20//46
f 27//47 3//47 26//47
f 26//48 2//48 4//48
f 26//49 3//49 1//49
f 23//50 12//50 19//50
